<svg xmlns="http://www.w3.org/2000/svg" viewBox="0 0 300 300">
<defs><radialGradient id="sky"><stop stop-color="#b9fff2"/><stop offset="1" stop-color="#278ca0"/></radialGradient><linearGradient id="peak" x2=".8" y2="1"><stop stop-color="#eafff5"/><stop offset="1" stop-color="#5b9a8b"/></linearGradient><linearGradient id="boot" x2=".4" y2="1"><stop stop-color="#f9a867"/><stop offset="1" stop-color="#97533c"/></linearGradient></defs>
<circle cx="150" cy="148" r="127" fill="url(#sky)"/><circle cx="222" cy="74" r="27" fill="#fff8c4" opacity=".9"/>
<path d="M24 206 95 101 132 154 183 75 279 216Z" fill="url(#peak)"/><path d="m64 147 31-46 33 49-32-13zM151 121l32-46 35 52-35-16z" fill="#f8fff7"/>
<path d="M24 205 Q76 183 127 202 T276 203 L278 242 Q150 298 24 240Z" fill="#398269"/><path d="M25 227 Q69 207 113 230 T278 218" fill="none" stroke="#b5eabd" stroke-width="7" opacity=".7"/>
<path d="M65 210v-66m-17 39 17-54 18 54m-9-19 16 31H39l17-31" fill="#1d6858" stroke="#124f48" stroke-width="4" stroke-linecap="round" stroke-linejoin="round"/>
<!-- Cheerful hiking boots meet on the trail -->
<g transform="rotate(-10 114 222)"><path d="M76 180h49l4 33 25 9q13 5 13 18v12H69v-20l7-21z" fill="url(#boot)" stroke="#532f2d" stroke-width="5"/><path d="M68 244h99v13H68z" rx="5" fill="#342e37"/><path d="M90 201h31m-31 11h33m-31 11h33" stroke="#fff2ca" stroke-width="5" stroke-linecap="round"/></g>
<g transform="rotate(12 207 215)"><path d="M184 176h47l2 41 26 12v24h-101v-13l22-24z" fill="#e3ad68" stroke="#55392f" stroke-width="5"/><path d="M155 244h109v13H155z" fill="#342e37"/><path d="M190 196h36m-35 12h37m-36 12h37" stroke="#fff2ca" stroke-width="5" stroke-linecap="round"/></g>
<path d="m157 69 5-12 5 12 12 5-12 5-5 13-5-13-12-5z" fill="#fff8bb"/>
</svg>
